<?xml version="1.0" standalone="no"?>
<!DOCTYPE svg PUBLIC "-//W3C//DTD SVG 20010904//EN"
 "http://www.w3.org/TR/2001/REC-SVG-20010904/DTD/svg10.dtd">
<svg version="1.0" xmlns="http://www.w3.org/2000/svg"
 width="400.000000pt" height="400.000000pt" viewBox="0 0 400.000000 400.000000"
 preserveAspectRatio="xMidYMid meet">
<metadata>
Created by potrace 1.11, written by Peter Selinger 2001-2013
</metadata>
<g transform="translate(0.000000,400.000000) scale(0.100000,-0.100000)"
fill="#000000" stroke="none">
<path d="M0 3408 l0 -593 129 -2 c72 -1 174 -9 228 -18 54 -9 107 -18 118 -20
11 -1 27 -5 35 -9 36 -15 185 -54 191 -50 6 4 13 -8 28 -46 3 -8 5 -62 6 -120
0 -89 -4 -111 -22 -146 -33 -63 -106 -156 -177 -224 -45 -43 -74 -82 -99 -133
-41 -85 -109 -171 -125 -155 -14 14 -42 -3 -81 -47 -33 -38 -34 -41 -32 -124
1 -38 -4 -60 -15 -72 -12 -13 -15 -28 -10 -50 9 -46 -20 -101 -103 -194 -49
-55 -71 -88 -71 -105 l1 -25 18 25 c11 14 39 46 63 71 23 25 63 77 86 115 l44
69 76 -73 c58 -56 97 -83 166 -117 50 -24 112 -47 139 -50 26 -4 47 -10 47
-14 0 -4 -22 -34 -50 -66 -113 -135 -133 -163 -161 -233 -16 -40 -29 -78 -29
-83 0 -22 19 4 49 68 33 68 139 205 153 197 13 -8 9 -89 -7 -134 -24 -67 -86
-202 -108 -233 -10 -16 -63 -63 -117 -106 -86 -68 -154 -126 -280 -241 -32
-30 -31 -29 20 6 30 21 70 51 88 66 18 15 39 28 48 28 8 0 36 -20 62 -44 37
-34 51 -42 67 -36 11 5 61 21 110 36 70 22 101 38 140 73 28 24 61 51 75 59
14 9 35 25 47 36 13 10 26 16 30 12 4 -4 8 -67 9 -139 0 -73 6 -175 13 -227
13 -102 8 -205 -15 -280 -8 -25 -14 -48 -14 -53 0 -4 113 -7 250 -7 l250 1 1
22 c1 32 7 58 17 82 5 11 19 43 31 70 12 28 30 59 39 70 24 28 133 120 157
133 39 20 187 34 285 27 122 -9 199 -28 283 -72 90 -47 139 -97 177 -180 17
-37 35 -75 39 -84 5 -8 7 -27 4 -42 l-5 -27 251 0 251 0 6 25 c4 15 1 53 -5
86 l-12 61 42 86 c66 137 70 149 90 280 10 69 19 127 19 129 0 2 14 -3 30 -12
17 -9 30 -20 30 -26 0 -13 108 -4 163 12 18 5 54 14 80 19 53 11 51 12 196
-115 25 -22 62 -48 81 -58 37 -18 96 -51 167 -93 32 -18 41 -21 37 -9 -4 9
-25 25 -48 37 -22 11 -55 33 -71 47 -17 15 -56 39 -87 54 -84 41 -236 178
-428 385 -25 27 -53 53 -63 58 -17 10 -16 13 3 60 16 37 34 59 76 89 35 25 74
67 106 115 29 41 59 86 69 100 9 14 31 48 49 77 l33 52 56 -31 c95 -53 114
-72 180 -189 35 -62 84 -138 109 -168 91 -112 177 -201 194 -201 10 0 18 -4
18 -9 0 -13 53 -21 68 -9 9 8 12 117 12 480 l0 469 -97 116 c-54 64 -119 140
-145 168 -27 29 -48 58 -48 66 0 8 37 39 83 68 45 29 110 74 144 100 l63 46 0
818 0 817 -735 0 c-404 0 -735 -2 -735 -4 0 -2 29 -34 65 -71 36 -37 65 -70
65 -75 0 -4 -28 -1 -62 8 -80 18 -154 7 -320 -48 -65 -22 -126 -40 -135 -40
-9 0 -46 -9 -82 -19 -128 -37 -122 -38 -177 19 l-48 50 -46 -44 c-42 -41 -143
-116 -156 -116 -3 0 -24 -13 -47 -28 -23 -16 -64 -34 -91 -41 -27 -7 -63 -22
-79 -33 l-30 -21 7 61 c10 87 -10 179 -45 215 -36 35 -51 34 -93 -8 -20 -19
-43 -35 -53 -35 -10 0 -29 -16 -42 -35 -19 -29 -24 -53 -32 -157 -5 -68 -13
-177 -19 -243 -6 -66 -10 -151 -10 -190 0 -108 -45 -355 -65 -355 -9 0 5 83
17 97 24 29 -1 309 -27 301 -5 -2 -8 -48 -6 -115 2 -107 -5 -147 -31 -164 -5
-3 -10 -51 -10 -105 0 -54 -4 -109 -9 -121 -7 -20 -94 -73 -119 -73 -6 0 4 16
21 35 27 29 35 33 48 22 14 -10 14 -10 5 3 -6 8 -8 26 -4 40 4 19 -8 52 -47
130 -29 58 -53 113 -53 123 0 10 13 25 28 34 29 17 44 38 92 130 15 29 29 50
31 48 2 -2 6 76 7 173 3 116 0 174 -6 167 -5 -5 -12 -80 -15 -165 -3 -85 -10
-166 -15 -180 -9 -20 -11 -11 -11 50 0 41 4 107 8 145 8 69 -3 115 -16 66 -3
-13 -15 -42 -27 -65 -19 -38 -20 -47 -9 -106 7 -36 12 -80 13 -99 0 -25 4 -32
15 -27 10 4 8 -4 -7 -25 l-23 -31 -2 49 c-2 26 -10 87 -20 135 l-17 87 48 103
c114 243 148 308 201 378 57 76 153 163 169 152 5 -3 6 0 2 6 -5 8 -181 12
-636 12 l-630 0 0 -592z m1109 482 c-36 -52 -87 -108 -66 -73 4 6 3 14 -3 18
-5 3 -10 12 -10 18 0 7 5 4 11 -6 9 -16 13 -14 40 19 16 20 26 41 22 48 -3 6
-3 8 2 4 5 -5 14 1 22 12 8 11 16 20 19 20 3 0 -14 -27 -37 -60z m1471 -78
l75 -7 46 -70 c26 -38 68 -91 94 -117 44 -44 74 -100 75 -140 0 -10 7 -39 16
-65 15 -44 15 -51 -1 -98 -25 -69 -63 -145 -74 -145 -18 0 -88 96 -94 128 -8
42 -64 164 -81 177 -7 6 -31 42 -54 82 -55 94 -83 116 -137 107 -22 -3 -52
-12 -66 -20 -52 -26 -115 -32 -269 -26 -146 7 -155 8 -155 27 0 17 7 20 53 20
48 1 56 4 85 37 28 30 48 40 147 68 117 34 237 59 255 53 6 -2 44 -6 85 -11z
m-1250 -17 c12 -14 31 -207 25 -245 -2 -8 -6 -42 -9 -75 -4 -33 -11 -76 -16
-95 -8 -32 -20 -111 -36 -245 -14 -118 -20 -214 -17 -264 5 -62 -2 -101 -19
-101 -12 0 -4 204 12 275 4 22 9 108 9 190 0 83 5 193 10 245 14 128 13 207
-4 254 -21 59 11 102 45 61z m-332 -20 c-3 -3 -9 2 -12 12 -6 14 -5 15 5 6 7
-7 10 -15 7 -18z m2 -40 c0 -4 -9 4 -20 18 -11 14 -20 28 -20 32 0 4 9 -4 20
-18 11 -14 20 -28 20 -32z m880 -9 c28 -26 44 -49 40 -56 -4 -6 -5 -22 -3 -34
5 -22 2 -23 -69 -26 -98 -4 -135 -4 -188 -1 -39 2 -43 4 -26 14 10 7 57 42
104 80 46 37 87 67 90 67 3 0 26 -20 52 -44z m-607 -16 c5 -19 7 -80 3 -135
-3 -55 -10 -194 -15 -310 -16 -330 -31 -485 -48 -485 -8 0 -46 -14 -85 -30
-39 -17 -72 -29 -74 -27 -2 2 8 35 22 75 18 52 30 123 43 259 32 312 40 417
34 444 -3 18 5 39 27 73 19 27 34 64 37 89 2 23 6 52 9 65 7 35 36 23 47 -18z
m-323 -60 c0 -5 -5 -10 -11 -10 -5 0 -7 5 -4 10 3 6 8 10 11 10 2 0 4 -4 4
-10z m1561 -30 l34 -30 -87 1 c-49 1 -88 5 -88 9 0 5 24 18 53 29 28 11 53 20
53 20 1 1 17 -13 35 -29z m-1598 -30 c-3 -11 -10 -23 -16 -27 -5 -3 -8 -2 -5
3 3 5 8 17 11 27 9 24 16 22 10 -3z m-62 -57 c-12 -20 -14 -14 -5 12 4 9 9 14
11 11 3 -2 0 -13 -6 -23z m25 -20 c-18 -33 -21 -26 -6 13 6 15 13 24 16 21 3
-3 -1 -18 -10 -34z m-50 -114 c-15 -34 -15 -34 -9 -4 7 35 13 48 20 42 2 -3
-3 -20 -11 -38z m1836 -100 c73 -77 135 -145 137 -150 1 -6 -3 -18 -11 -27 -8
-9 -27 -39 -42 -65 l-27 -48 -47 27 c-26 15 -85 57 -132 94 -106 83 -106 83
-122 67 -7 -7 -49 -34 -93 -60 l-80 -48 -74 -142 c-90 -174 -131 -237 -153
-237 -19 0 -24 15 -9 25 5 3 21 25 34 50 26 45 24 54 -15 68 -19 7 -20 -3 27
137 54 162 51 157 139 222 44 33 110 88 146 121 62 60 137 106 172 107 9 0 76
-63 150 -141z m-1861 30 c-5 -13 -10 -19 -10 -12 -1 15 10 45 15 40 3 -2 0
-15 -5 -28z m16 -96 c-3 -10 -5 -2 -5 17 0 19 2 27 5 18 2 -10 2 -26 0 -35z
m786 -56 c3 -8 -3 -13 -14 -13 -11 0 -19 4 -19 8 0 4 -3 7 -7 7 -22 -4 -43 2
-43 12 0 6 7 8 16 5 11 -4 15 -2 11 8 -5 12 -1 12 23 0 15 -8 30 -20 33 -27z
m-786 -9 c-3 -8 -6 -5 -6 6 -1 11 2 17 5 13 3 -3 4 -12 1 -19z m13 -77 c0 -32
-6 -24 -14 19 -4 25 -3 31 4 20 5 -8 10 -26 10 -39z m1676 -10 c81 -34 194
-90 194 -96 0 -2 -13 -37 -30 -77 -33 -82 -25 -80 -135 -43 -132 43 -165 48
-189 28 -102 -85 -126 -120 -133 -201 -5 -53 -27 -122 -39 -122 -4 0 -4 12 -1
28 6 34 -16 98 -33 94 -37 -9 -34 86 3 152 100 173 88 161 242 248 40 23 42
22 121 -11z m-1666 -27 c0 -8 -19 -13 -24 -6 -3 5 1 9 9 9 8 0 15 -2 15 -3z
m-42 -51 c-8 -10 -20 -27 -26 -38 -9 -17 -10 -17 -9 7 1 14 5 24 10 21 4 -2
10 3 13 11 3 9 11 16 17 16 5 0 3 -8 -5 -17z m523 -115 c6 -28 4 -58 -3 -85
-15 -51 -27 -56 -22 -10 1 17 3 59 3 91 1 67 9 68 22 4z m-549 -4 c-9 -16 -10
-14 -9 8 1 15 6 23 11 18 4 -4 4 -16 -2 -26z m1743 -50 c60 -13 113 -28 117
-32 11 -11 -23 -172 -36 -172 -13 1 -85 36 -147 73 l-46 27 -63 -70 c-34 -39
-64 -69 -66 -67 -3 2 3 20 11 40 14 35 14 37 -8 48 -12 6 -23 13 -25 14 -5 4
98 159 111 167 7 4 19 5 27 2 8 -3 64 -17 125 -30z m-1738 -6 c-3 -8 -6 -5 -6
6 -1 11 2 17 5 13 3 -3 4 -12 1 -19z m114 -77 c9 -25 7 -34 -12 -61 -13 -17
-29 -28 -37 -25 -7 2 -11 1 -8 -4 3 -5 0 -14 -8 -20 -8 -6 -17 -32 -20 -56 -4
-25 -11 -47 -16 -50 -5 -3 -4 10 1 29 7 26 6 44 -5 70 -13 31 -13 36 4 51 14
13 19 14 23 3 2 -7 2 -2 0 10 -2 15 0 21 6 17 6 -3 9 0 6 8 -3 7 1 29 8 48 8
18 12 41 9 49 -2 8 5 3 17 -12 12 -15 26 -40 32 -57z m1149 69 c0 -17 -27 -65
-44 -79 -13 -11 -15 -8 -11 25 3 20 10 43 16 51 14 16 39 17 39 3z m-1258 -72
c-9 -15 -18 -26 -20 -23 -2 2 3 14 11 26 9 11 13 29 10 38 -4 13 -3 14 5 1 8
-10 6 -22 -6 -42z m635 -49 c16 -6 52 -13 81 -15 30 -2 58 -7 64 -10 6 -4 126
-6 268 -6 l258 0 7 -35 c8 -42 58 -98 77 -86 7 4 29 8 48 9 19 0 42 4 50 8 13
5 14 -4 10 -66 -5 -68 -8 -77 -50 -132 -66 -87 -191 -190 -287 -237 -45 -21
-90 -39 -100 -39 -41 0 -269 159 -299 207 -10 16 -23 33 -30 38 -6 6 -23 56
-38 112 -28 110 -94 258 -126 285 -11 9 -20 28 -20 44 0 26 2 25 30 -19 16
-26 42 -52 57 -58z m-123 36 c47 -20 97 -110 148 -268 l40 -121 -37 -73 c-20
-40 -53 -96 -73 -123 -21 -28 -53 -75 -72 -105 -19 -30 -38 -51 -41 -47 -4 4
-9 43 -11 87 -4 78 -3 81 35 144 l38 63 -41 99 c-23 55 -47 99 -52 99 -5 0 -7
-9 -4 -20 3 -11 8 -29 11 -39 4 -14 -8 -29 -46 -60 -28 -23 -55 -41 -59 -41
-4 0 -12 10 -17 23 -10 19 -12 20 -18 5 -7 -17 51 -122 95 -173 30 -36 38 -77
45 -227 l6 -148 -36 0 c-34 0 -35 -1 -35 -40 0 -23 7 -54 15 -70 9 -17 11 -30
6 -30 -26 0 -63 92 -76 188 -18 127 -36 207 -52 225 -10 11 -44 37 -76 59 -45
30 -62 37 -70 28 -9 -8 -8 -13 3 -20 8 -5 30 -20 48 -33 l33 -25 -48 -17 c-67
-23 -78 -30 -81 -48 -3 -15 0 -15 35 0 56 24 137 43 144 35 3 -4 14 -50 23
-102 l18 -95 -53 -48 c-134 -120 -214 -140 -429 -108 -138 20 -192 59 -204
150 -6 48 -4 56 36 124 24 39 49 85 56 101 7 16 34 52 61 80 89 92 127 140
161 201 18 33 55 93 82 134 45 65 57 76 113 102 35 15 83 45 107 66 24 21 61
45 83 54 22 9 51 22 65 28 29 12 74 7 124 -14z m-549 -33 c-3 -3 -11 0 -18 7
-9 10 -8 11 6 5 10 -3 15 -9 12 -12z m1407 -73 c8 -39 -5 -60 -20 -33 -13 26
-12 76 1 71 7 -2 15 -19 19 -38z m1182 25 c3 -8 2 -12 -4 -9 -6 3 -10 10 -10
16 0 14 7 11 14 -7z m-854 -13 c41 -21 47 -42 49 -151 1 -97 -6 -109 -47 -75
-22 18 -32 22 -32 13 0 -19 45 -61 68 -63 9 0 22 -4 28 -8 6 -3 11 0 11 8 0 8
-4 12 -9 9 -4 -3 -8 -1 -8 5 0 5 5 13 10 16 15 9 13 202 -2 208 -10 4 -10 6
-1 6 18 1 46 -57 40 -85 -2 -13 -1 -21 3 -19 8 5 32 -20 48 -51 9 -17 7 -27
-11 -52 -12 -18 -27 -30 -34 -27 -7 2 -15 -1 -19 -7 -5 -7 -2 -9 7 -4 8 4 3
-1 -9 -11 -70 -54 -102 -88 -121 -129 -38 -80 -17 -100 112 -110 47 -4 90 -10
97 -14 19 -12 -5 -55 -65 -113 -48 -46 -55 -58 -50 -80 8 -30 87 -107 110
-107 9 0 27 -11 40 -25 43 -42 27 -136 -38 -233 -25 -38 -78 -82 -99 -82 -11
0 -37 55 -36 76 1 24 -35 102 -60 131 -22 25 -80 43 -141 43 -35 0 -42 3 -37
16 3 8 2 13 -3 9 -10 -6 -27 73 -17 82 13 13 58 -10 94 -48 22 -22 48 -42 58
-44 11 -2 20 -4 22 -4 1 -1 4 0 6 2 9 5 45 -36 50 -59 4 -13 11 -24 16 -24 13
0 13 1 -5 37 -19 39 -47 64 -75 66 -12 1 -40 19 -63 39 -22 21 -50 41 -62 43
-57 13 -76 13 -90 -2 -9 -8 -18 -13 -20 -11 -3 2 -9 51 -13 109 -12 134 -5
228 17 254 17 19 69 104 83 135 4 9 7 2 7 -18 1 -24 -3 -31 -11 -26 -7 4 -11
5 -8 1 3 -3 9 -5 13 -6 5 0 15 -8 22 -18 11 -14 11 -24 0 -53 -27 -73 -27 -97
3 -118 15 -11 36 -22 48 -26 37 -11 64 -45 64 -80 0 -37 -19 -59 -46 -54 -11
2 -20 -4 -22 -14 -2 -13 3 -18 18 -18 32 0 58 17 76 51 14 29 14 34 -5 75 -13
28 -36 53 -61 69 -23 14 -43 32 -46 39 -3 7 4 37 15 67 27 71 27 91 -1 87 -31
-4 -38 33 -32 171 6 143 8 152 40 190 31 37 71 41 124 12z m879 -56 c0 -5 -4
-3 -9 5 -5 8 -9 22 -9 30 0 16 17 -16 18 -35z m52 -142 c13 -16 12 -17 -3 -4
-17 13 -22 21 -14 21 2 0 10 -8 17 -17z m204 -43 c3 -6 -1 -7 -9 -4 -18 7 -21
14 -7 14 6 0 13 -4 16 -10z m-2371 -65 c4 -16 13 -25 26 -25 29 0 25 -25 -12
-76 -17 -24 -33 -44 -35 -44 -1 0 -23 26 -47 57 l-45 57 47 28 c58 34 58 34
66 3z m36 4 c0 -6 -4 -7 -10 -4 -5 3 -10 11 -10 16 0 6 5 7 10 4 6 -3 10 -11
10 -16z m2225 -7 c-3 -3 -11 0 -18 7 -9 10 -8 11 6 5 10 -3 15 -9 12 -12z
m-718 -118 c8 -18 23 -36 32 -40 39 -20 -24 -109 -83 -118 -8 -1 -19 -6 -23
-11 -4 -4 -2 -5 5 -1 15 9 16 -6 0 -22 -8 -8 -4 -20 16 -47 15 -19 24 -40 21
-45 -4 -6 -1 -9 7 -8 7 2 12 -2 11 -9 -2 -7 3 -10 10 -8 6 3 18 -4 25 -15 11
-17 10 -20 -7 -20 -22 0 -84 70 -100 113 -21 54 -37 24 -33 -62 1 -23 0 -23
-27 10 l-29 34 27 35 c37 48 42 57 51 96 7 30 6 34 -14 35 -11 1 -27 1 -33 0
-24 -3 -15 57 11 74 13 9 37 41 53 71 l28 54 19 -42 c10 -24 25 -57 33 -74z
m775 34 c-7 -7 -5 -19 4 -36 7 -15 15 -35 18 -45 6 -17 7 -17 23 -2 16 16 16
18 0 29 -10 8 -14 20 -10 35 4 14 1 26 -8 32 -11 7 -11 9 2 9 9 0 23 -8 31
-17 19 -22 29 -83 14 -83 -6 0 -20 -13 -31 -29 -18 -28 -20 -29 -33 -10 -7 10
-19 19 -27 19 -8 0 -17 5 -21 11 -4 8 0 9 15 4 27 -8 40 20 18 42 -14 14 -16
13 -26 -6 -15 -28 -31 -27 -31 2 0 27 9 40 35 55 22 12 42 5 27 -10z m-2082
-30 c0 -67 -18 -117 -59 -162 -21 -22 -44 -58 -51 -79 -10 -31 -14 -36 -26
-26 -23 19 -17 82 14 135 45 80 106 174 115 174 4 0 7 -19 7 -42z m2218 17 c6
-14 10 -25 8 -25 -2 0 -11 11 -20 25 -9 14 -13 25 -8 25 5 0 14 -11 20 -25z
m-798 -115 c6 -11 8 -20 6 -20 -3 0 -10 9 -16 20 -6 11 -8 20 -6 20 3 0 10 -9
16 -20z m-1365 -34 c17 -25 69 -87 115 -140 l85 -96 180 -1 c274 -3 248 1 256
-37 9 -44 18 -51 35 -27 13 18 14 16 10 -19 -3 -21 -12 -49 -21 -62 -8 -13
-15 -32 -15 -42 0 -11 -12 -37 -28 -58 -15 -21 -33 -50 -40 -64 -20 -39 -111
-132 -122 -125 -5 3 -14 -4 -19 -17 -5 -13 -19 -31 -31 -41 -11 -10 -18 -23
-14 -29 4 -7 3 -8 -4 -4 -17 10 -59 -31 -45 -45 12 -12 21 -6 102 68 25 23 49
43 54 43 4 0 7 6 7 14 0 7 15 26 33 42 18 16 44 45 58 64 13 19 26 37 29 40
13 13 30 63 24 72 -4 6 -2 8 4 4 13 -8 47 89 36 105 -4 8 -3 9 4 5 8 -4 12 0
12 11 0 11 7 4 18 -17 15 -31 24 -36 72 -46 64 -14 90 -23 90 -34 0 -32 -110
-274 -150 -331 -20 -27 -26 -29 -87 -29 -49 0 -74 -5 -99 -21 -19 -11 -34 -24
-34 -28 0 -4 -11 -13 -25 -19 -14 -6 -25 -17 -25 -23 0 -19 68 -3 113 27 22
14 58 29 80 32 l41 5 -24 -34 c-32 -46 -240 -250 -323 -316 -55 -44 -73 -54
-93 -49 -15 4 -22 11 -18 18 4 6 3 8 -3 5 -21 -13 -176 124 -254 223 -33 42
-89 132 -89 143 0 17 89 -8 120 -33 38 -30 120 -52 120 -32 0 6 -10 17 -22 23
-13 7 -28 20 -35 29 -20 29 -68 42 -137 38 l-66 -3 -55 106 c-30 58 -68 146
-84 195 -28 88 -28 89 -10 113 11 13 19 36 19 52 0 34 9 59 22 59 34 0 103
-89 154 -197 15 -32 30 -60 34 -63 4 -3 24 -41 46 -85 35 -72 76 -125 97 -125
4 0 7 -5 7 -10 0 -6 9 -21 20 -32 15 -16 23 -19 31 -11 9 9 2 22 -28 52 -37
36 -118 156 -111 163 2 2 -6 17 -18 33 -11 17 -31 55 -43 85 -13 29 -34 70
-46 91 -31 49 -33 59 -11 92 30 45 62 213 58 305 -1 17 1 32 6 32 4 0 21 -20
37 -44z m1405 -1 c7 -9 8 -15 2 -15 -5 0 -12 7 -16 15 -3 8 -4 15 -2 15 2 0 9
-7 16 -15z m70 -51 c0 -2 -9 0 -20 6 -11 6 -20 13 -20 16 0 2 9 0 20 -6 11 -6
20 -13 20 -16z m-210 -9 c-7 -9 -15 -13 -19 -10 -3 3 1 10 9 15 21 14 24 12
10 -5z m250 -25 c0 -5 27 -37 59 -72 59 -63 60 -63 37 -75 -13 -7 -26 -20 -30
-28 -5 -14 -9 -13 -28 6 -50 47 -80 59 -155 59 -67 0 -75 2 -108 31 -19 17
-35 34 -35 38 0 3 56 6 124 6 68 0 128 3 132 7 4 5 -1 17 -11 28 -17 18 -17
20 -2 14 9 -3 17 -10 17 -14z m-1737 -50 c3 -11 6 -24 7 -27 1 -4 -4 -9 -11
-12 -8 -2 -9 1 -4 10 5 8 4 11 0 6 -5 -4 -9 -22 -9 -39 -1 -45 -22 -46 -24 -1
-1 37 14 83 29 83 3 0 9 -9 12 -20z m-1022 -93 c-6 -8 -12 -33 -14 -58 -1 -24
-6 -50 -10 -57 -5 -8 2 -30 20 -57 27 -43 53 -65 53 -45 0 6 30 -15 68 -45 37
-30 72 -55 79 -55 7 0 17 -8 22 -19 7 -13 18 -17 35 -14 13 3 31 1 39 -4 13
-7 12 -12 -8 -37 l-23 -29 -49 28 c-45 27 -133 89 -176 124 -28 24 -95 166
-97 208 0 5 62 73 67 73 3 0 1 -6 -6 -13z m948 -84 c-3 -78 -32 -106 -48 -46
-18 62 -18 61 42 72 4 0 7 -11 6 -26z m2061 -41 c40 -54 56 -78 122 -186 26
-44 48 -83 48 -87 0 -4 6 -9 13 -12 6 -2 9 -7 6 -11 -8 -8 -95 37 -126 66 -14
12 -45 63 -69 112 -24 49 -49 95 -54 101 -10 13 6 66 19 65 3 -1 22 -22 41
-48z m-2980 6 c0 -16 -3 -19 -11 -11 -6 6 -8 16 -5 22 11 17 16 13 16 -11z
m50 -58 c0 -6 -4 -10 -8 -10 -17 0 -32 25 -32 55 l0 30 20 -33 c11 -18 20 -37
20 -42z m770 -1 c24 -30 28 -43 23 -73 -5 -29 -1 -42 16 -60 12 -12 19 -26 16
-29 -3 -4 -2 -5 2 -2 12 9 33 -18 33 -43 0 -14 -9 -36 -21 -48 -13 -14 -21
-37 -22 -63 -2 -44 -4 -45 -72 -16 -94 40 -135 96 -135 188 0 42 32 97 56 97
13 0 15 6 18 51 1 9 12 28 26 42 21 22 26 24 28 9 2 -9 17 -33 32 -53z m-820
-7 c0 -4 -9 7 -20 23 -11 17 -20 35 -20 40 0 6 9 -5 20 -23 11 -18 20 -36 20
-40z m689 49 c8 -5 9 -11 3 -15 -14 -8 -43 4 -36 15 7 11 15 11 33 0z m-25
-30 c3 -5 -1 -14 -8 -20 -16 -13 -32 2 -21 19 8 12 22 13 29 1z m26 -21 c0 -5
-5 -10 -11 -10 -5 0 -7 5 -4 10 3 6 8 10 11 10 2 0 4 -4 4 -10z m-156 -19 c18
-7 18 -8 0 -25 -17 -18 -18 -18 -25 0 -14 36 -11 39 25 25z m-41 -20 c6 -24 0
-31 -25 -31 -21 0 -22 4 -8 31 14 24 26 24 33 0z m176 2 c-39 -51 -119 -124
-128 -118 -24 14 -10 42 33 65 25 12 55 33 67 46 26 28 48 33 28 7z m-459 -18
c0 -10 -10 -15 -32 -14 l-33 1 30 13 c17 8 31 14 33 15 1 0 2 -7 2 -15z m45
-33 c-2 -2 -12 -1 -23 2 -14 5 -18 13 -14 28 5 20 5 20 23 -3 10 -13 16 -25
14 -27z m267 -4 c-7 -7 -12 -8 -12 -2 0 14 12 26 19 19 2 -3 -1 -11 -7 -17z
m-332 -8 c0 -11 -2 -20 -5 -20 -2 0 -9 9 -15 20 -9 16 -8 20 5 20 8 0 15 -9
15 -20z m304 5 c-5 -11 -11 -12 -25 -4 -26 13 -24 19 6 19 17 0 23 -4 19 -15z
m-243 -32 c-24 -17 -41 -10 -41 17 0 17 4 18 31 8 29 -10 30 -11 10 -25z m214
-34 c9 -26 9 -26 -47 -34 -39 -6 -48 -4 -48 8 0 19 39 46 67 46 13 1 24 -7 28
-20z m1681 -496 c-7 -7 -26 7 -26 19 0 6 6 6 15 -2 9 -7 13 -15 11 -17z m84
-151 c1 -13 38 -52 49 -52 6 0 31 18 55 40 49 46 58 40 46 -30 -12 -78 -29
-126 -58 -166 -15 -21 -52 -83 -82 -136 -29 -54 -57 -98 -61 -98 -9 0 9 46 47
115 28 53 124 263 124 273 0 3 -12 -6 -27 -20 -34 -32 -62 -38 -74 -18 -26 45
-104 221 -100 225 4 5 81 -120 81 -133z m-1470 -67 c29 -48 83 -114 134 -164
80 -80 93 -101 61 -101 -29 0 -178 177 -225 268 -14 28 -26 40 -32 34 -5 -5
-12 -54 -15 -108 -5 -92 7 -180 32 -246 5 -14 2 -18 -13 -18 -17 0 -22 10 -31
53 -26 139 -30 295 -10 399 l12 61 19 -49 c11 -27 41 -85 68 -129z m1293 132
c79 -34 148 -160 125 -230 -12 -36 -44 -86 -68 -104 -23 -20 -132 -73 -147
-73 -7 0 -13 11 -13 24 0 20 6 25 38 31 51 9 77 24 107 65 44 60 26 173 -34
218 -36 26 -99 53 -105 44 -2 -4 0 -45 5 -92 4 -47 7 -103 7 -125 0 -35 -1
-33 -8 15 -4 30 -10 91 -14 136 -6 77 -5 81 16 92 31 15 53 14 91 -1z m-882
-77 c91 -65 47 -320 -55 -320 -46 0 -64 25 -75 106 -13 92 -4 189 22 222 15
19 76 14 108 -8z m-221 -93 c5 -41 19 -103 30 -138 27 -78 20 -88 -8 -12 -31
86 -56 215 -44 228 9 9 12 0 22 -78z m549 22 c39 -6 85 -8 101 -5 45 7 76 -35
52 -70 -11 -17 -67 -35 -93 -31 -13 2 -37 0 -54 -4 -29 -6 -29 -7 -4 -8 32 -1
44 -15 54 -58 6 -28 2 -37 -23 -63 -20 -19 -41 -30 -58 -30 -28 0 -28 0 -7 15
33 23 35 52 6 86 l-26 30 -18 -52 c-20 -56 -34 -77 -46 -66 -3 4 3 28 15 55
24 50 30 118 18 192 -4 28 -4 40 2 32 5 -7 41 -18 81 -23z m349 -28 c12 -35
-1 -112 -26 -155 -22 -38 -77 -76 -108 -76 -39 0 -62 34 -54 80 12 64 66 144
114 167 48 24 61 21 74 -16z"/>
<path d="M837 2689 c7 -7 15 -10 18 -7 3 3 -2 9 -12 12 -14 6 -15 5 -6 -5z"/>
<path d="M1770 2592 c0 -12 34 -42 48 -42 20 0 14 18 -8 25 -11 3 -20 11 -20
16 0 5 -4 9 -10 9 -5 0 -10 -4 -10 -8z"/>
<path d="M1888 2582 c-28 -17 -36 -32 -18 -32 15 0 60 31 60 41 0 12 -10 10
-42 -9z"/>
<path d="M1600 2451 c0 -19 119 -82 174 -92 75 -14 210 2 270 31 51 24 62 46
19 36 -172 -36 -308 -34 -397 7 -66 30 -66 30 -66 18z m417 -57 c-62 -33 -254
-36 -305 -4 -13 8 -9 9 18 3 45 -9 227 -5 265 6 45 14 53 12 22 -5z"/>
<path d="M1777 2438 c15 -7 46 -7 100 -1 l78 10 -100 1 c-77 0 -95 -2 -78 -10z"/>
<path d="M1696 2311 c-3 -5 0 -13 7 -19 19 -16 87 -42 109 -42 40 0 157 32
161 44 4 11 -4 11 -41 2 -73 -16 -174 -13 -205 7 -14 9 -28 13 -31 8z"/>
<path d="M2409 2613 c26 -37 36 -87 19 -101 -7 -5 -26 -12 -43 -14 -26 -2 -30
-7 -27 -28 4 -24 3 -25 -12 -5 -24 31 -20 0 10 -70 18 -45 26 -83 29 -152 4
-94 18 -143 44 -151 11 -4 12 2 6 24 -13 50 -1 204 16 204 15 0 10 32 -12 79
-26 58 -21 71 25 61 34 -8 36 -7 36 19 0 36 -37 143 -53 153 -6 4 -22 8 -35 8
l-23 0 20 -27z"/>
<path d="M2515 2340 c-3 -6 1 -7 9 -4 18 7 21 14 7 14 -6 0 -13 -4 -16 -10z"/>
<path d="M2458 2103 c7 -3 16 -2 19 1 4 3 -2 6 -13 5 -11 0 -14 -3 -6 -6z"/>
<path d="M1697 1273 c-14 -13 -6 -31 15 -37 32 -8 47 10 22 29 -22 16 -28 18
-37 8z"/>
<path d="M1815 1260 c-22 -11 -46 -19 -52 -20 -15 0 -18 -30 -3 -30 6 0 10
-11 10 -25 0 -18 -11 -31 -45 -51 -25 -14 -45 -29 -45 -33 0 -4 12 -13 26 -20
22 -9 25 -16 20 -38 -6 -23 -5 -25 16 -18 13 4 45 7 71 7 48 -1 48 -1 42 27
-4 19 -1 32 10 41 18 15 19 27 3 33 -7 2 -5 3 4 2 20 -3 33 11 19 20 -6 3 -8
12 -5 19 3 9 -5 20 -22 28 -31 15 -43 48 -14 41 22 -6 34 11 17 25 -9 7 -24 5
-52 -8z"/>
<path d="M1206 1487 c3 -10 9 -15 12 -12 3 3 0 11 -7 18 -10 9 -11 8 -5 -6z"/>
<path d="M1407 785 c-33 -33 -43 -98 -23 -147 18 -41 36 -51 70 -38 53 20 57
173 6 200 -25 13 -24 14 -53 -15z"/>
<path d="M1750 755 c0 -3 6 -21 14 -40 14 -32 17 -34 57 -30 72 8 119 55 67
69 -28 7 -138 8 -138 1z"/>
<path d="M2058 705 c-46 -43 -48 -105 -4 -113 25 -5 76 52 76 85 0 29 -15 53
-35 53 -5 0 -22 -11 -37 -25z"/>
<path d="M1880 3792 c0 -5 7 -15 15 -22 8 -7 15 -9 15 -6 0 4 -7 14 -15 22 -8
9 -15 11 -15 6z"/>
<path d="M991 3234 c0 -11 3 -14 6 -6 3 7 2 16 -1 19 -3 4 -6 -2 -5 -13z"/>
<path d="M1366 76 c-15 -14 -26 -37 -26 -51 l0 -26 138 3 137 3 0 24 c0 43
-45 66 -140 70 -79 3 -85 1 -109 -23z"/>
<path d="M2008 56 c-10 -7 -18 -23 -18 -35 0 -20 4 -21 125 -21 69 0 125 4
125 9 0 4 -12 20 -26 35 -25 24 -33 26 -108 26 -51 -1 -87 -5 -98 -14z"/>
</g>
</svg>
